# xmcd
#
# Track frame offsets:
# 150
# 24874
# 32282
# 53016
# 61223
# 73348
# 84502
# 103980
# 124817
# 152810
# 168793
# 179594
# 195989
# 213925
# 233593
# 262375
# 278481
# 291831
#
# Disc length: 4129 seconds
#
# Revision: 1
# Processed by: cddbd v1.5.2PL0 Copyright (c) Steve Scherf et al.
# Submitted via: CedeCatalogueitor 2.6.0.6 http://personales.ya.com/cdcatalogueitor
#
DISCID=f8101f12
DTITLE=Varios Artistas - Foehn
DYEAR=1900
DGENRE=
TTITLE0=Blacanova - Serie B
TTITLE1=Marina Gallardo - Smile
TTITLE2=Poomse - The Los Years
TTITLE3=Balagao - Esperan El Reton
TTITLE4=Gaf - Alien Love
TTITLE5=Vanova - Bushy Beard Chris
TTITLE6=Emilio José - Rio Grande Do Sul
TTITLE7=Suma - Lightness
TTITLE8=Café Teatro - Lana
TTITLE9=Inhabitants - Briht As The Sun
TTITLE10=El Gos Binari - Hoy Me Siento Jeff
TTITLE11=Thn Thousand Island - My Dear Love Green Place
TTITLE12=Apeiron - Crepation
TTITLE13=Bedroom - El Suro De L'amo
TTITLE14=Tannhaauser - Temporal
TTITLE15=Lucius Works Here - Memory Stick
TTITLE16=Tan Low - As Usual
TTITLE17=Ursula - Detalles Sin Importancia
EXTD=
EXTT0=
EXTT1=
EXTT2=
EXTT3=
EXTT4=
EXTT5=
EXTT6=
EXTT7=
EXTT8=
EXTT9=
EXTT10=
EXTT11=
EXTT12=
EXTT13=
EXTT14=
EXTT15=
EXTT16=
EXTT17=
PLAYORDER=
